<svg width="22" height="22" viewBox="0 0 22 22" fill="none" xmlns="http://www.w3.org/2000/svg">
<path d="M12.1716 0.3856C12.9382 0.382659 13.7049 0.390364 14.4713 0.408713L14.6751 0.416067C14.9105 0.424472 15.1426 0.434978 15.4231 0.447585C16.541 0.500114 17.3037 0.676611 17.9729 0.936104C18.6663 1.20295 19.2504 1.56435 19.8345 2.14847C20.3686 2.67335 20.782 3.30826 21.0458 4.00905C21.3053 4.67827 21.4818 5.44204 21.5344 6.55985C21.547 6.83931 21.5575 7.07254 21.5659 7.30787L21.5722 7.51168C21.5909 8.27775 21.5989 9.04405 21.5963 9.81035L21.5974 10.5941V11.9703C21.6 12.737 21.5919 13.5036 21.5732 14.2701L21.5669 14.4739C21.5585 14.7092 21.548 14.9414 21.5354 15.2219C21.4829 16.3397 21.3043 17.1024 21.0458 17.7716C20.7828 18.4732 20.3694 19.1086 19.8345 19.6333C19.3092 20.1673 18.674 20.5806 17.9729 20.8446C17.3037 21.1041 16.541 21.2806 15.4231 21.3331C15.1426 21.3457 14.9105 21.3562 14.6751 21.3646L14.4713 21.3709C13.7049 21.3896 12.9382 21.3977 12.1716 21.3951L11.3879 21.3961H10.0127C9.24601 21.3987 8.47937 21.3907 7.71294 21.372L7.50913 21.3657C7.25973 21.3566 7.01039 21.3461 6.76112 21.3342C5.6433 21.2816 4.88058 21.103 4.21031 20.8446C3.50924 20.5812 2.87422 20.1678 2.34973 19.6333C1.81504 19.1083 1.4013 18.473 1.13737 17.7716C0.877872 17.1024 0.701375 16.3397 0.648846 15.2219C0.637146 14.9726 0.62664 14.7233 0.617329 14.4739L0.612076 14.2701C0.592707 13.5036 0.583951 12.737 0.585811 11.9703V9.81035C0.582879 9.04406 0.590584 8.27776 0.608924 7.51168L0.616278 7.30787C0.624683 7.07254 0.635189 6.83931 0.647795 6.55985C0.700324 5.44099 0.876822 4.67932 1.13631 4.00905C1.4004 3.30791 1.81495 2.67318 2.35078 2.14952C2.87491 1.61452 3.50953 1.2004 4.21031 0.936104C4.88058 0.676611 5.64225 0.500114 6.76112 0.447585L7.50913 0.416067L7.71294 0.410815C8.47901 0.391455 9.2453 0.3827 10.0116 0.38455L12.1716 0.3856ZM11.0916 5.6385C10.3956 5.62865 9.70458 5.75724 9.05871 6.01678C8.41283 6.27632 7.82498 6.66163 7.32932 7.15034C6.83365 7.63904 6.44006 8.22139 6.17141 8.86353C5.90277 9.50567 5.76442 10.1948 5.76442 10.8909C5.76442 11.5869 5.90277 12.2761 6.17141 12.9182C6.44006 13.5604 6.83365 14.1427 7.32932 14.6314C7.82498 15.1201 8.41283 15.5054 9.05871 15.765C9.70458 16.0245 10.3956 16.1531 11.0916 16.1432C12.4848 16.1432 13.8209 15.5898 14.806 14.6047C15.7911 13.6196 16.3445 12.2835 16.3445 10.8903C16.3445 9.49719 15.7911 8.16109 14.806 7.17598C13.8209 6.19088 12.4848 5.6385 11.0916 5.6385ZM11.0916 7.73966C11.5103 7.73194 11.9263 7.80773 12.3153 7.9626C12.7044 8.11746 13.0586 8.3483 13.3575 8.64162C13.6563 8.93495 13.8937 9.28488 14.0558 9.67098C14.2178 10.0571 14.3013 10.4716 14.3014 10.8903C14.3015 11.3091 14.2181 11.7236 14.0562 12.1098C13.8942 12.4959 13.657 12.8459 13.3582 13.1394C13.0595 13.4328 12.7053 13.6637 12.3163 13.8187C11.9273 13.9737 11.5113 14.0497 11.0927 14.0421C10.2568 14.0421 9.4551 13.71 8.86404 13.119C8.27297 12.5279 7.94092 11.7262 7.94092 10.8903C7.94092 10.0545 8.27297 9.25279 8.86404 8.66173C9.4551 8.07066 10.2568 7.73861 11.0927 7.73861L11.0916 7.73966ZM16.6071 4.06263C16.2682 4.07619 15.9477 4.22037 15.7127 4.46497C15.4777 4.70957 15.3464 5.03561 15.3464 5.3748C15.3464 5.714 15.4777 6.04004 15.7127 6.28463C15.9477 6.52923 16.2682 6.67341 16.6071 6.68698C16.9554 6.68698 17.2895 6.54862 17.5357 6.30234C17.782 6.05606 17.9204 5.72204 17.9204 5.37375C17.9204 5.02546 17.782 4.69144 17.5357 4.44516C17.2895 4.19888 16.9554 4.06053 16.6071 4.06053V4.06263Z" fill="black"/>
</svg>
