<svg width="31" height="31" viewBox="0 0 31 31" fill="none" xmlns="http://www.w3.org/2000/svg">
<circle cx="15.5721" cy="15.4278" r="15.4278" fill="black"/>
<path d="M9.92776 21.8247C9.51385 21.8247 9.15938 21.6772 8.86437 21.3822C8.56936 21.0872 8.42211 20.733 8.42261 20.3196V11.2887C8.42261 10.8747 8.57011 10.5203 8.86512 10.2253C9.16013 9.93026 9.51435 9.78301 9.92776 9.78351H21.969C22.3829 9.78351 22.7374 9.93101 23.0324 10.226C23.3274 10.521 23.4747 10.8752 23.4742 11.2887V20.3196C23.4742 20.7335 23.3267 21.088 23.0316 21.383C22.7366 21.678 22.3824 21.8252 21.969 21.8247H9.92776ZM15.9484 16.5567L9.92776 12.7938V20.3196H21.969V12.7938L15.9484 16.5567ZM15.9484 15.0516L21.969 11.2887H9.92776L15.9484 15.0516ZM9.92776 12.7938V11.2887V20.3196V12.7938Z" fill="white"/>
</svg>
