<svg width="38" height="38" viewBox="0 0 38 38" fill="none" xmlns="http://www.w3.org/2000/svg">
<g clip-path="url(#clip0_6_250)">
<path d="M11.8779 0H15.9598V1.70683H13.5848V3.41367H15.9598V5.1205H11.8779V0ZM16.7752 0H20.8586V1.48517H18.4836V1.78125H20.8586V5.19492H16.7752V3.63692H19.1502V3.33925H16.7752V0ZM21.6756 0H25.7558V1.48517H23.3808V1.78125H25.7558V5.19492H21.6756V3.63692H24.0506V3.33925H21.6756V0Z" fill="#FF7704"/>
<path fill-rule="evenodd" clip-rule="evenodd" d="M18.9858 38L7.99108 34.9473L4.75 7.4686H33.25L30.0105 34.9442L18.9858 38ZM11.1578 19.9073L11.4602 23.2766H23.1404L22.7493 27.6466L18.9905 28.6631H18.9873L15.2348 27.6498L14.9942 24.9628H11.6106L12.0824 30.2543L18.9858 32.1702L25.9002 30.2543L26.7425 20.8113L26.8248 19.9073L27.4328 13.0847H10.5513L10.8585 16.4556H23.7405L23.4333 19.9073H11.1578Z" fill="#FF7704"/>
</g>
<defs>
<clipPath id="clip0_6_250">
<rect width="38" height="38" fill="white"/>
</clipPath>
</defs>
</svg>
