<svg width="31" height="31" viewBox="0 0 31 31" fill="none" xmlns="http://www.w3.org/2000/svg">
<circle cx="15.4278" cy="15.4278" r="15.4278" fill="black"/>
<path d="M21.1097 10.4684C20.4198 9.77142 19.5979 9.21884 18.6922 8.84284C17.7864 8.46684 16.8149 8.27495 15.8342 8.27837C11.7251 8.27837 8.37612 11.6273 8.37612 15.7364C8.37612 17.0534 8.72231 18.3328 9.36953 19.4617L8.31592 23.3299L12.2669 22.2914C13.3582 22.8859 14.5849 23.202 15.8342 23.202C19.9432 23.202 23.2922 19.853 23.2922 15.7439C23.2922 13.7496 22.5171 11.8757 21.1097 10.4684ZM15.8342 21.9376C14.7204 21.9376 13.6291 21.6366 12.6733 21.0722L12.4476 20.9367L10.0995 21.5538L10.7242 19.266L10.5737 19.0327C9.95484 18.0445 9.62626 16.9023 9.6254 15.7364C9.6254 12.3197 12.4099 9.53517 15.8266 9.53517C17.4823 9.53517 19.0401 10.1824 20.2066 11.3564C20.7842 11.9313 21.242 12.6152 21.5533 13.3684C21.8646 14.1215 22.0234 14.929 22.0204 15.7439C22.0354 19.1606 19.2509 21.9376 15.8342 21.9376ZM19.2358 17.3018C19.0477 17.2115 18.1295 16.7599 17.964 16.6922C17.7909 16.632 17.6705 16.6019 17.5425 16.7825C17.4146 16.9706 17.0609 17.3921 16.9555 17.5125C16.8501 17.6404 16.7373 17.6555 16.5491 17.5576C16.361 17.4673 15.7589 17.2641 15.0515 16.632C14.4946 16.1353 14.1258 15.5257 14.0129 15.3375C13.9076 15.1494 13.9979 15.0516 14.0957 14.9537C14.1785 14.8709 14.2839 14.7355 14.3742 14.6301C14.4645 14.5248 14.5021 14.442 14.5623 14.3216C14.6225 14.1936 14.5924 14.0883 14.5473 13.998C14.5021 13.9076 14.1258 12.9895 13.9753 12.6132C13.8248 12.252 13.6667 12.2971 13.5539 12.2896H13.1926C13.0647 12.2896 12.869 12.3348 12.6959 12.5229C12.5304 12.711 12.0487 13.1626 12.0487 14.0807C12.0487 14.9989 12.7185 15.8869 12.8088 16.0073C12.8991 16.1353 14.1258 18.0167 15.9922 18.822C16.4362 19.0176 16.7824 19.1305 17.0533 19.2133C17.4974 19.3563 17.9038 19.3337 18.2274 19.2886C18.5886 19.2359 19.3336 18.837 19.4842 18.4005C19.6422 17.964 19.6422 17.5953 19.5895 17.5125C19.5368 17.4297 19.424 17.3921 19.2358 17.3018Z" fill="white"/>
</svg>
