<svg width="26" height="26" viewBox="0 0 26 26" fill="none" xmlns="http://www.w3.org/2000/svg">
<mask id="mask0_4_91" style="mask-type:luminance" maskUnits="userSpaceOnUse" x="0" y="0" width="26" height="26">
<path d="M0 0H25.2139V25.2139H0V0Z" fill="white"/>
</mask>
<g mask="url(#mask0_4_91)">
<path fill-rule="evenodd" clip-rule="evenodd" d="M12.607 0C5.64161 0 0 5.64161 0 12.607C0 18.1855 3.60874 22.8974 8.62 24.5678C9.25035 24.6781 9.48673 24.2999 9.48673 23.969C9.48673 23.6696 9.47097 22.6768 9.47097 21.6209C6.30348 22.204 5.48402 20.8487 5.23188 20.1396C5.09006 19.7772 4.47547 18.6583 3.93967 18.3589C3.49843 18.1225 2.86808 17.5394 3.92391 17.5237C4.91671 17.5079 5.62585 18.4377 5.86223 18.8159C6.99686 20.7227 8.80911 20.1869 9.53401 19.8559C9.64432 19.0365 9.97525 18.4849 10.3377 18.1698C7.53265 17.8546 4.60154 16.7672 4.60154 11.9451C4.60154 10.5741 5.09006 9.43946 5.89375 8.55697C5.76768 8.2418 5.32644 6.94958 6.01982 5.21613C6.01982 5.21613 7.07565 4.88519 9.48673 6.50834C10.4953 6.22468 11.5669 6.08285 12.6385 6.08285C13.7101 6.08285 14.7817 6.22468 15.7902 6.50834C18.2013 4.86944 19.2571 5.21613 19.2571 5.21613C19.9505 6.94958 19.5093 8.2418 19.3832 8.55697C20.1869 9.43946 20.6754 10.5583 20.6754 11.9451C20.6754 16.783 17.7285 17.8546 14.9235 18.1698C15.3805 18.5637 15.7744 19.3202 15.7744 20.5021C15.7744 22.1882 15.7587 23.5435 15.7587 23.969C15.7587 24.2999 15.9951 24.6939 16.6254 24.5678C19.1281 23.7228 21.3028 22.1144 22.8434 19.9687C24.3841 17.8231 25.2132 15.2484 25.2139 12.607C25.2139 5.64161 19.5723 0 12.607 0Z" fill="black"/>
</g>
</svg>
