<svg width="23" height="23" viewBox="0 0 23 23" fill="none" xmlns="http://www.w3.org/2000/svg">
<path d="M0.451172 1.96451C0.451172 1.09168 1.17647 0.384308 2.07136 0.384308H20.8931C21.788 0.384308 22.5133 1.09168 22.5133 1.96451V20.8663C22.5133 21.7391 21.788 22.4465 20.8931 22.4465H2.07136C1.17647 22.4465 0.451172 21.7391 0.451172 20.8663V1.96451ZM7.267 18.8531V8.89065H3.9563V18.8531H7.267ZM5.61234 7.52969C6.76647 7.52969 7.48487 6.76579 7.48487 5.80884C7.46418 4.83121 6.76785 4.08799 5.6344 4.08799C4.50096 4.08799 3.7605 4.83259 3.7605 5.80884C3.7605 6.76579 4.4789 7.52969 5.59028 7.52969H5.61234ZM12.3799 18.8531V13.2893C12.3799 12.9915 12.402 12.6936 12.4902 12.4813C12.7288 11.887 13.2734 11.2706 14.189 11.2706C15.3873 11.2706 15.8657 12.1834 15.8657 13.5237V18.8531H19.1764V13.139C19.1764 10.0779 17.5438 8.65486 15.3652 8.65486C13.6085 8.65486 12.8212 9.62008 12.3799 10.2999V10.3343H12.3578C12.3652 10.3228 12.3725 10.3113 12.3799 10.2999V8.89065H9.07058C9.11195 9.82554 9.07058 18.8531 9.07058 18.8531H12.3799Z" fill="black"/>
</svg>
