<svg width="44" height="44" viewBox="0 0 44 44" fill="none" xmlns="http://www.w3.org/2000/svg">
<path d="M12.8549 18.7124H11.121L10.1764 23.5675H11.7164C12.7325 23.5675 13.4915 23.375 13.9934 22.9886C14.487 22.6091 14.8239 21.9643 14.9958 21.0691C15.1663 20.2098 15.0879 19.6006 14.7744 19.2431C14.4513 18.8925 13.8132 18.7124 12.8549 18.7124ZM22 10.428C9.84638 10.428 0 15.6131 0 22C0 28.3869 9.84638 33.572 22 33.572C34.1536 33.572 44 28.3869 44 22C44 15.6131 34.1536 10.428 22 10.428ZM16.0201 24.0914C15.5441 24.5489 14.9713 24.8933 14.344 25.0993C13.728 25.2931 12.9415 25.4004 11.9886 25.4004H9.8175L9.2235 28.4804H6.69487L8.95125 16.8864H13.8064C15.268 16.8864 16.335 17.2659 17.0074 18.0318C17.6743 18.7976 17.8819 19.8729 17.6082 21.2479C17.5059 21.7924 17.3179 22.3173 17.0514 22.803C16.7771 23.2841 16.4286 23.7189 16.0187 24.0914H16.0201ZM23.4039 25.4004L24.3994 20.2675C24.5135 19.6859 24.4709 19.2871 24.2687 19.0699C24.0763 18.8623 23.6527 18.755 23.0092 18.755H21.0114L19.723 25.4004H17.2095L19.4645 13.7995H21.9711L21.3703 16.8864H23.6046C25.0168 16.8864 25.982 17.1298 26.5127 17.6165C27.0504 18.1115 27.2071 18.9049 27.0009 20.0021L25.9463 25.4018L23.4039 25.4004ZM37.3244 21.2479C37.2251 21.7932 37.037 22.3186 36.7675 22.803C36.4958 23.2836 36.1501 23.7184 35.7431 24.0914C35.2628 24.5467 34.6882 24.8908 34.0601 25.0993C33.4441 25.2931 32.6562 25.4004 31.7048 25.4004H29.5419L28.941 28.4804H26.4124L28.6688 16.8864H33.5239C34.9855 16.8864 36.0525 17.2659 36.7249 18.04C37.3918 18.799 37.598 19.8729 37.3244 21.2479ZM32.571 18.7124H30.844L29.8994 23.5675H31.4325C32.4555 23.5675 33.2145 23.375 33.7095 22.9886C34.21 22.6091 34.5469 21.9643 34.7201 21.0691C34.8906 20.2098 34.8123 19.6006 34.4891 19.2431C34.1756 18.8925 33.5308 18.7124 32.571 18.7124Z" fill="#3F59DE"/>
</svg>
