<svg width="62" height="64" viewBox="0 0 62 64" fill="none" xmlns="http://www.w3.org/2000/svg">
<path d="M16.7292 1.61208C11.2846 5.11 7.60417 11.2846 7.60417 18.3412C7.60417 25.3979 11.2846 31.5725 16.8204 35.0704C7.4825 35.0704 0 27.5879 0 18.3412C0 13.9044 1.76253 9.64927 4.89986 6.51194C8.03719 3.37462 12.2923 1.61208 16.7292 1.61208ZM51.9212 6.17458L56.2708 10.5242L8.91208 57.8829L4.5625 53.5333L51.9212 6.17458ZM33.1238 13.5658L28.6221 10.7371L24.2421 13.7787L25.5196 8.60792L21.2917 5.38375L26.6146 5.01875L28.3787 0L30.4167 4.95792L35.6787 5.04917L31.5725 8.48625L33.1238 13.5658ZM23.0863 24.5462L19.5579 22.3258L16.1513 24.6983L17.1854 20.6833L13.87 18.1588L18.0067 17.885L19.3754 13.9613L20.9267 17.8242L25.0633 17.9154L21.8696 20.5617L23.0863 24.5462ZM51.7083 36.5913C51.7083 41.0281 49.9458 45.2832 46.8085 48.4206C43.6712 51.5579 39.416 53.3204 34.9792 53.3204C31.2683 53.3204 27.8312 52.1038 25.0633 50.0658L48.4538 26.6754C50.4917 29.4433 51.7083 32.8804 51.7083 36.5913ZM38.325 56.6054L46.7504 53.1075L46.0204 63.2971L38.325 56.6054ZM51.4954 48.3929L54.9933 39.9675L61.685 47.6933L51.4954 48.3929ZM54.9933 33.3063L51.5258 24.8504L61.685 25.5804L54.9933 33.3063ZM23.2079 53.1075L31.6333 56.6054L23.9379 63.2667L23.2079 53.1075Z" fill="black"/>
</svg>
