<?xml version="1.0" encoding="UTF-8"?>
<!DOCTYPE svg PUBLIC "-//W3C//DTD SVG 1.1//EN" "http://www.w3.org/Graphics/SVG/1.1/DTD/svg11.dtd">
<svg xmlns="http://www.w3.org/2000/svg" version="1.1" width="1200px" height="608px" style="shape-rendering:geometricPrecision; text-rendering:geometricPrecision; image-rendering:optimizeQuality; fill-rule:evenodd; clip-rule:evenodd" xmlns:xlink="http://www.w3.org/1999/xlink">
<g><path style="opacity:0.992" fill="#2f8d46" d="M 260.5,-0.5 C 277.833,-0.5 295.167,-0.5 312.5,-0.5C 408.032,7.66792 484.199,50.0013 541,126.5C 572.045,170.949 589.879,220.283 594.5,274.5C 595.5,274.5 596.5,274.5 597.5,274.5C 607.825,176.434 653.825,100.267 735.5,46C 779.015,19.7725 826.015,4.27254 876.5,-0.5C 895.833,-0.5 915.167,-0.5 934.5,-0.5C 1010.04,6.10517 1074.04,36.6052 1126.5,91C 1101.6,116.572 1076.1,141.405 1050,165.5C 994.13,109.569 927.63,91.0691 850.5,110C 782.331,130.169 737.165,174.003 715,241.5C 711.74,252.298 709.574,263.298 708.5,274.5C 868.167,274.5 1027.83,274.5 1187.5,274.5C 1200.11,344.721 1189.95,411.388 1157,474.5C 1113.28,544.808 1050.45,587.641 968.5,603C 958.363,604.566 948.363,606.066 938.5,607.5C 916.833,607.5 895.167,607.5 873.5,607.5C 768.773,595.858 689.273,545.192 635,455.5C 619.935,428.809 609.102,400.476 602.5,370.5C 598.217,369.508 593.884,369.174 589.5,369.5C 565.758,470.182 506.758,541.682 412.5,584C 382.445,596.097 351.445,603.93 319.5,607.5C 297.5,607.5 275.5,607.5 253.5,607.5C 180.708,600.85 118.875,571.517 68,519.5C 37.1294,485.095 16.7961,445.095 7,399.5C 3.59609,383.492 1.09609,367.492 -0.5,351.5C -0.5,336.167 -0.5,320.833 -0.5,305.5C 0.909901,295.258 2.57657,284.925 4.5,274.5C 164.167,274.5 323.833,274.5 483.5,274.5C 475.252,215.127 446.586,168.627 397.5,135C 341.408,101.614 282.408,95.2803 220.5,116C 190.652,126.831 164.485,143.331 142,165.5C 115.517,141.348 90.1832,116.348 66,90.5C 119.097,35.5398 183.931,5.20649 260.5,-0.5 Z M 108.5,369.5 C 230.834,369.333 353.167,369.5 475.5,370C 453.388,433.725 410.054,475.392 345.5,495C 290.412,509.882 237.412,504.549 186.5,479C 144.223,454.343 118.223,417.843 108.5,369.5 Z M 716.5,369.5 C 838.834,369.333 961.167,369.5 1083.5,370C 1065.22,443.279 1018.89,486.613 944.5,500C 888.273,509.289 836.273,498.622 788.5,468C 753.546,443.207 729.546,410.374 716.5,369.5 Z"/></g>
</svg>
