<svg width="39" height="39" viewBox="0 0 39 39" fill="none" xmlns="http://www.w3.org/2000/svg">
<circle cx="19.5" cy="19.5" r="19.5" fill="black"/>
<g clip-path="url(#clip0_76_6)">
<path d="M29.953 22.4031C29.8016 22.6993 29.5995 22.966 29.3551 23.1914C29.0125 23.5039 28.6169 23.7529 28.1869 23.9268C27.1208 24.3131 25.9519 24.3071 24.8898 23.9098C24.3842 23.715 23.9233 23.4196 23.5351 23.0417C23.1468 22.6638 22.8391 22.2111 22.6306 21.711C22.5782 21.589 22.5323 21.4643 22.4931 21.3375H30.3423C30.258 21.708 30.1272 22.0664 29.953 22.4041V22.4031ZM17.2659 21.711C17.0573 22.2109 16.7498 22.6635 16.3617 23.0414C15.9736 23.4193 15.5131 23.7147 15.0078 23.9098C13.9453 24.3073 12.776 24.3133 11.7096 23.9268C11.2797 23.7528 10.8841 23.5038 10.5414 23.1914C10.2974 22.966 10.0953 22.6991 9.94459 22.4031C9.77011 22.0662 9.63926 21.7085 9.55519 21.3386H17.4034C17.3632 21.4655 17.3188 21.5904 17.2659 21.711ZM32.6099 19.8508C32.5915 19.6816 32.5626 19.5138 32.5232 19.3482L22.3291 19.3397C22.4374 18.398 22.8641 17.5214 23.5385 16.8552C23.9226 16.4849 24.3744 16.1939 24.8718 15.9992C25.6702 15.6566 26.5553 15.57 27.4051 15.7513C28.2548 15.9327 29.0274 16.3731 29.6165 17.0118L31.2259 15.4352C30.6552 14.8204 29.9625 14.3313 29.1921 13.9993C28.3406 13.6414 27.4238 13.4648 26.5002 13.4808C25.6286 13.4754 24.7643 13.6397 23.9554 13.9644C23.1812 14.2739 22.4754 14.7326 21.8783 15.3146C21.2832 15.9023 20.8072 16.5993 20.4763 17.3674C20.2045 17.9932 20.0379 18.6596 19.9832 19.3397H19.9165C19.8616 18.6592 19.6946 17.9924 19.4223 17.3663C19.0916 16.5984 18.6155 15.9017 18.0203 15.3146C17.4233 14.7325 16.7175 14.2737 15.9432 13.9644C14.2574 13.3064 12.3838 13.3181 10.7065 13.9972C9.93637 14.3302 9.2441 14.8199 8.67376 15.4352L10.2821 17.0118C10.8871 16.3973 11.6591 15.9737 12.5025 15.7935C13.3458 15.6133 14.2235 15.6845 15.0268 15.9981C15.5242 16.1928 15.977 16.4849 16.3601 16.8552C16.7495 17.2362 17.0585 17.6933 17.269 18.197C17.4235 18.561 17.5251 18.9461 17.5706 19.3397L7.37543 19.3482C7.29572 19.7057 7.25562 20.0708 7.25586 20.437C7.25134 21.2024 7.37472 21.963 7.62092 22.6877C7.86292 23.3909 8.25257 24.0342 8.76371 24.5744C9.3224 25.1669 10.0017 25.6325 10.753 25.9425C11.5953 26.278 12.4961 26.4424 13.4026 26.4261C14.2745 26.4314 15.1379 26.2674 15.9464 25.9425C16.7213 25.6334 17.4276 25.1742 18.0245 24.5913C18.9243 23.7038 19.5445 22.5723 19.8086 21.3365H20.0974C20.3622 22.5724 20.9823 23.7041 21.8815 24.5923C22.4786 25.1748 23.1848 25.6336 23.9596 25.9425C24.7685 26.2674 25.6329 26.4316 26.5045 26.4261C27.4103 26.4422 28.3103 26.2778 29.1519 25.9425C29.9054 25.6331 30.5842 25.1667 31.1434 24.5744C31.6545 24.0342 32.0441 23.3909 32.2861 22.6877C32.5318 21.9629 32.6552 21.2023 32.6512 20.437C32.6489 20.241 32.6351 20.0453 32.6099 19.8508Z" fill="white"/>
</g>
<defs>
<clipPath id="clip0_76_6">
<rect width="25.3953" height="25.3953" fill="white" transform="translate(7.25586 7.25586)"/>
</clipPath>
</defs>
</svg>
