<svg width="25" height="25" viewBox="0 0 25 25" fill="none" xmlns="http://www.w3.org/2000/svg">
<path d="M12.3905 0C5.62482 0 0.133789 5.49103 0.133789 12.2568C0.133789 19.0225 5.62482 24.5135 12.3905 24.5135C19.1563 24.5135 24.6473 19.0225 24.6473 12.2568C24.6473 5.49103 19.1563 0 12.3905 0ZM18.0777 8.3346C17.8938 10.2712 17.0971 14.9778 16.6927 17.1472C16.5211 18.0665 16.1779 18.3729 15.8592 18.4097C15.1483 18.4709 14.609 17.9439 13.9226 17.4904C12.844 16.7795 12.2312 16.3383 11.1894 15.6519C9.97597 14.8552 10.7604 14.414 11.459 13.7031C11.6429 13.5192 14.7806 10.6634 14.8419 10.406C14.8504 10.367 14.8493 10.3265 14.8386 10.2881C14.8279 10.2496 14.808 10.2144 14.7806 10.1854C14.7071 10.1241 14.609 10.1486 14.5232 10.1609C14.4129 10.1854 12.697 11.3252 9.35087 13.5805C8.8606 13.9114 8.41936 14.083 8.02714 14.0708C7.5859 14.0585 6.75244 13.8256 6.12734 13.6173C5.35517 13.3721 4.75459 13.2373 4.80361 12.8083C4.82813 12.5877 5.13455 12.3671 5.71062 12.1342C9.28959 10.5776 11.6674 9.54802 12.8563 9.05775C16.2637 7.63596 16.9623 7.39083 17.4281 7.39083C17.5261 7.39083 17.759 7.41534 17.9061 7.53791C18.0287 7.63596 18.0654 7.77079 18.0777 7.86884C18.0654 7.94238 18.0899 8.163 18.0777 8.3346Z" fill="black"/>
</svg>
