<svg width="19" height="19" viewBox="0 0 19 19" fill="none" xmlns="http://www.w3.org/2000/svg">
<path d="M15.1097 4.46836C14.4198 3.77142 13.5979 3.21884 12.6922 2.84284C11.7864 2.46684 10.8149 2.27495 9.83417 2.27837C5.72509 2.27837 2.37612 5.62733 2.37612 9.73641C2.37612 11.0534 2.72231 12.3328 3.36953 13.4617L2.31592 17.3299L6.26695 16.2914C7.35819 16.8859 8.58489 17.202 9.83417 17.202C13.9432 17.202 17.2922 13.853 17.2922 9.74393C17.2922 7.7496 16.5171 5.87568 15.1097 4.46836ZM9.83417 15.9376C8.72035 15.9376 7.62911 15.6366 6.67334 15.0722L6.44757 14.9367L4.09953 15.5538L4.72417 13.266L4.57365 13.0327C3.95484 12.0445 3.62626 10.9023 3.6254 9.73641C3.6254 6.31971 6.40994 3.53517 9.82664 3.53517C11.4823 3.53517 13.0401 4.18239 14.2066 5.35641C14.7842 5.93135 15.242 6.61521 15.5533 7.36837C15.8646 8.12152 16.0234 8.92897 16.0204 9.74393C16.0354 13.1606 13.2509 15.9376 9.83417 15.9376ZM13.2358 11.3018C13.0477 11.2115 12.1295 10.7599 11.964 10.6922C11.7909 10.632 11.6705 10.6019 11.5425 10.7825C11.4146 10.9706 11.0609 11.3921 10.9555 11.5125C10.8501 11.6404 10.7373 11.6555 10.5491 11.5576C10.361 11.4673 9.75891 11.2641 9.05148 10.632C8.49458 10.1353 8.12581 9.52568 8.01293 9.33754C7.90757 9.1494 7.99788 9.05156 8.09571 8.95373C8.17849 8.87094 8.28386 8.73548 8.37417 8.63012C8.46447 8.52476 8.5021 8.44197 8.56231 8.32156C8.62252 8.19362 8.59241 8.08826 8.54726 7.99795C8.5021 7.90764 8.12581 6.9895 7.9753 6.61321C7.82478 6.25197 7.66674 6.29713 7.55386 6.2896H7.19262C7.06468 6.2896 6.86901 6.33476 6.69592 6.5229C6.53035 6.71105 6.0487 7.16259 6.0487 8.08074C6.0487 8.99888 6.7185 9.88692 6.8088 10.0073C6.89911 10.1353 8.12581 12.0167 9.99221 12.822C10.4362 13.0176 10.7824 13.1305 11.0533 13.2133C11.4974 13.3563 11.9038 13.3337 12.2274 13.2886C12.5886 13.2359 13.3336 12.837 13.4842 12.4005C13.6422 11.964 13.6422 11.5953 13.5895 11.5125C13.5368 11.4297 13.424 11.3921 13.2358 11.3018Z" fill="white"/>
</svg>
